HIERARCHY
ROOT Hips
{
    OFFSET 0.0 0.0 0.0
    CHANNELS 6 Xposition Yposition Zposition Zrotation Xrotation Yrotation
    JOINT LeftHipJoint
    {
        OFFSET 0.1 0.0 0.0
        CHANNELS 3 Zrotation Xrotation Yrotation
        JOINT LeftUpLeg
        {
            OFFSET 118.44365434326723 0.0 0.0
            CHANNELS 3 Zrotation Xrotation Yrotation
            JOINT LeftLeg
            {
                OFFSET 0.0 0.0 -400.6561695361337
                CHANNELS 3 Zrotation Xrotation Yrotation
                JOINT LeftFoot
                {
                    OFFSET 0.0 0.0 -397.0288948919567
                    CHANNELS 3 Zrotation Xrotation Yrotation
                    End Site
                    {
                        OFFSET 0.0 -0.1 0.0
                    }
                }
            }
        }
    }
    JOINT LowerBack
    {
        OFFSET 0.0 0.0 0.1
        CHANNELS 3 Zrotation Xrotation Yrotation
        JOINT Spine
        {
            OFFSET 0.0 0.0 217.99815546690175
            CHANNELS 3 Zrotation Xrotation Yrotation
            JOINT Spine1
            {
                OFFSET 0.0 0.0 252.94687706485257
                CHANNELS 3 Zrotation Xrotation Yrotation
                JOINT LeftShoulder
                {
                    OFFSET 0.1 0.0 0.0
                    CHANNELS 3 Zrotation Xrotation Yrotation
                    JOINT LeftArm
                    {
                        OFFSET 142.87902240156933 0.0 0.0
                        CHANNELS 3 Zrotation Xrotation Yrotation
                        JOINT LeftForeArm
                        {
                            OFFSET 254.45157047722682 0.0 0.0
                            CHANNELS 3 Zrotation Xrotation Yrotation
                            JOINT LeftHand
                            {
                                OFFSET 246.57690393175702 0.0 0.0
                                CHANNELS 3 Zrotation Xrotation Yrotation
                                End Site
                                {
                                    OFFSET 0.1 0.0 0.0
                                }
                            }
                        }
                    }
                }
                JOINT Neck
                {
                    OFFSET 0.0 0.0 0.1
                    CHANNELS 3 Zrotation Xrotation Yrotation
                    JOINT Neck1
                    {
                        OFFSET 0.0 0.0 108.70060151203043
                        CHANNELS 3 Zrotation Xrotation Yrotation
                        End Site
                        {
                            OFFSET 0.0 0.0 116.48533804876688
                        }
                    }
                }
                JOINT RightShoulder
                {
                    OFFSET -0.1 0.0 0.0
                    CHANNELS 3 Zrotation Xrotation Yrotation
                    JOINT RightArm
                    {
                        OFFSET -142.87902240156933 0.0 0.0
                        CHANNELS 3 Zrotation Xrotation Yrotation
                        JOINT RightForeArm
                        {
                            OFFSET -254.45157047722682 0.0 0.0
                            CHANNELS 3 Zrotation Xrotation Yrotation
                            JOINT RightHand
                            {
                                OFFSET -246.57690393175702 0.0 0.0
                                CHANNELS 3 Zrotation Xrotation Yrotation
                                End Site
                                {
                                    OFFSET -0.1 0.0 0.0
                                }
                            }
                        }
                    }
                }
            }
        }
    }
    JOINT RightHipJoint
    {
        OFFSET -0.1 0.0 0.0
        CHANNELS 3 Zrotation Xrotation Yrotation
        JOINT RightUpLeg
        {
            OFFSET -118.44365434326723 0.0 0.0
            CHANNELS 3 Zrotation Xrotation Yrotation
            JOINT RightLeg
            {
                OFFSET 0.0 0.0 -400.6561695361337
                CHANNELS 3 Zrotation Xrotation Yrotation
                JOINT RightFoot
                {
                    OFFSET 0.0 0.0 -397.0288948919567
                    CHANNELS 3 Zrotation Xrotation Yrotation
                    End Site
                    {
                        OFFSET 0.0 -0.1 0.0
                    }
                }
            }
        }
    }
}
MOTION
Frames: 7
Frame Time: 0.03333333333333333
0.0 0.0 807.4971536642992 23.668910096275322 1.7860040728957296 3.7119251319443123 0.0 0.0 -7.951386703658792e-16 -0.36099985697805775 -18.11015800444958 -0.16441798464818946 0.5359242414291547 28.23420979947127 -0.3930769840690678 0.0 0.0 -3.975693351829396e-16 0.0 0.0 -7.951386703658792e-16 -0.06331525598053572 -3.2744434893421763 -3.352253833605487 0.6466444663485887 4.3172857587917974e-16 -2.436286409781731e-18 0.0 0.0 0.0 -40.40657711702814 10.951885330566512 81.11926831405867 -21.87823828233447 3.4540561451672368e-15 1.5649895609794495e-14 0.0 0.0 -9.93923337957349e-17 0.0 0.0 0.0 -0.3742219535662091 -4.087057429244287 3.1819397815403523 0.0 0.0 0.0 19.498027395912604 12.624317339817699 -72.38529913204877 40.819646515906264 0.0 0.0 0.0 0.0 -7.951386703658792e-16 0.0 0.0 -7.951386703658792e-16 -0.26634780535323177 -13.493839619208277 0.07397077994936854 0.5636052689128195 24.904404799067652 -2.2803539695066357 0.0 0.0 -3.975693351829396e-16
0.0 0.0 807.4971536642992 23.752342304525776 1.8432809084955473 3.7619850803583685 -9.051956275298177e-34 -2.981770013872047e-16 -3.4787316828507215e-16 -0.3865123390150905 -18.205796209977347 -0.21531440482911782 0.550020511447077 28.271222947459695 -0.45235659752982404 0.0 0.0 -3.975693351829396e-16 -9.051956275298177e-34 -2.981770013872047e-16 -3.4787316828507215e-16 -0.0685698449424035 -3.3316671411076215 -3.4248131938857784 0.6542750224814833 2.8419532202369724e-16 -1.6226668252992163e-18 0.0 0.0 4.969616689786745e-17 -40.845926409311865 11.088405176088445 81.30067737960117 -21.780644493626774 -1.379957671219389e-15 -1.8079363359462528e-14 -7.172597734331508e-32 3.1805546814635168e-15 2.5842006786891076e-15 0.0 0.0 4.969616689786745e-17 -0.3937040619295798 -4.061524634949188 3.2201010054340644 0.0 0.0 4.969616689786745e-17 19.357547827489135 12.573802552139586 -72.19068468133895 41.652378984783816 -1.189099045268416e-14 4.523184206136878e-15 0.0 0.0 -8.74652537402467e-15 -9.051956275298177e-34 -2.981770013872047e-16 -3.4787316828507215e-16 -0.282920324368086 -13.472387299439875 0.02550612731412685 0.5762452019600933 24.949600592535162 -2.2779111494058144 -6.896728590703373e-34 -9.939233379573489e-17 -7.951386703658791e-16
0.0 0.0 807.4971536642992 23.830248809149417 1.942713644944555 3.8676546021549276 0.0 0.0 4.969616689786745e-17 -0.40320385052144536 -18.403689813048217 -0.3202450402611222 0.5206264349998649 28.532005302471784 -0.4885028529555244 0.0 0.0 7.951386703658792e-16 0.0 0.0 4.969616689786745e-17 -0.07213848209696017 -3.399578974487667 -3.56067633028469 0.640537287459832 -2.8908497798498246e-16 1.6159273667072381e-18 0.0 0.0 4.969616689786745e-17 -41.37459658317651 11.205507224996618 81.45553175584081 -21.65251753296785 1.093380696996167e-14 2.0909290149157146e-15 0.0 0.0 2.5842006786891076e-15 0.0 0.0 4.969616689786745e-17 -0.37150828946213976 -4.115682353308017 3.2250279081161004 0.0 0.0 4.969616689786745e-17 19.186297175465675 12.57488821521443 -71.9843393430578 42.504543429697456 1.515148480666774e-14 2.1408307212722874e-14 0.0 0.0 -2.3854160110976376e-15 0.0 0.0 4.969616689786745e-17 -0.29265092830569783 -13.518472266733836 -0.06501645964560249 0.552710814404137 24.989871211278203 -2.3009764287969774 3.1805546814635176e-15 -3.310429723537619e-32 -1.1927080055488192e-15
0.0 0.0 807.4971536642992 23.83988024003801 1.9525020308739633 3.9294512761844094 3.1805546814635168e-15 -9.93923337957349e-17 -3.975693351829396e-16 -0.38842465518468544 -18.459941764684714 -0.333345942860423 0.4887279899156837 28.661867544932083 -0.5824639287669652 0.0 0.0 -1.1927080055488188e-15 3.1805546814635168e-15 -9.93923337957349e-17 -3.975693351829396e-16 -0.06894731720940098 -3.3834757664245547 -3.661685535255633 0.6587834120938677 2.888541966180998e-16 -1.6606323477880563e-18 0.0 0.0 0.0 -41.453102587738805 11.25597124035778 81.55042190068494 -21.611486071615932 -7.220468938230802e-15 1.2383239377206199e-14 0.0 0.0 -1.2921003393445538e-15 0.0 0.0 0.0 -0.2588022674017075 -4.117704573101932 3.2630808865119736 0.0 0.0 0.0 18.883853419847448 12.736654949376145 -71.6724352490819 43.79326042943786 -8.246011405968455e-15 1.3597849018764902e-14 0.0 0.0 1.5902773407317584e-15 3.1805546814635168e-15 -9.93923337957349e-17 -3.975693351829396e-16 -0.2798324835084049 -13.460551533801494 -0.12134057238425917 0.5025307105526324 24.9595340915624 -2.341941371791987 0.0 0.0 -3.975693351829396e-16
0.0 0.0 807.4971536642992 23.902689952491805 2.0378742903769913 3.9568237467237 0.0 0.0 3.4787316828507215e-16 -0.36876609702222235 -18.617304768924992 -0.3397917029270066 0.4486794499498528 28.806045983043067 -0.6450684517410055 0.0 0.0 -3.975693351829396e-16 0.0 0.0 3.4787316828507215e-16 -0.06568659125056664 -3.426124949826038 -3.5941606526720804 0.6767949961507164 -4.2492898472850964e-16 1.019037910800494e-16 0.0 0.0 0.0 -41.13243550726538 11.337271891531662 81.45977091192184 -21.582147932309308 -4.6130356029484675e-15 7.215288013574456e-15 0.0 0.0 1.9878466759146985e-16 0.0 0.0 0.0 -0.3183505645722407 -4.129506972646301 3.1474797728406703 0.0 0.0 0.0 18.799047315782314 12.952899168550369 -71.47460329695846 44.96518009285847 1.2162526459493861e-15 2.9388190796645875e-15 0.0 0.0 -7.951386703658792e-16 0.0 0.0 3.4787316828507215e-16 -0.26338696733020045 -13.46593267416866 -0.1628139475840389 0.45086119764912375 24.991240605801504 -2.3807000877219417 3.1805546814635164e-15 -9.93923337957349e-17 -3.9756933518293955e-16
0.0 0.0 807.4971536642992 23.921605309185104 2.05907166244847 3.943054457861665 3.1805546814635164e-15 -9.939233379573492e-17 -9.939233379573488e-16 -0.33446900262500395 -18.57572146477285 -0.3312608353984138 0.39497761300616546 28.774240728206927 -0.7091373799262707 -3.1805546814635168e-15 -1.5902773407317584e-15 -3.975693351829396e-16 3.1805546814635164e-15 -9.939233379573492e-17 -9.939233379573488e-16 -0.060530138240484636 -3.4719131852805614 -3.526270279466205 0.6457267558425582 4.627882065545797e-16 -2.607852557917778e-18 0.0 0.0 0.0 -40.869855993590434 11.477847556374908 81.48071967157374 -21.486646616701336 -7.411072068623441e-17 3.9060079026695727e-16 0.0 0.0 -4.969616689786745e-16 0.0 0.0 0.0 -0.3722980849805647 -4.03029828487412 3.0673980670103846 0.0 0.0 0.0 18.672470038962533 13.181134273665348 -71.18044053760875 46.350194040308644 -2.503366120265817e-15 -5.847809025183981e-15 0.0 0.0 7.951386703658792e-16 3.1805546814635164e-15 -9.939233379573492e-17 -9.939233379573488e-16 -0.23851465987911147 -13.410551779551636 -0.1795357098964503 0.3940041732241961 24.920751255314574 -2.393215862572042 3.1805546814635164e-15 1.4908850069360234e-15 3.975693351829395e-16
0.0 0.0 807.4971536642992 23.914196773455313 2.066959194423001 3.9558534106122183 0.0 0.0 -4.969616689786745e-17 -0.3146259620523981 -18.476765971919328 -0.3994493148813177 0.32525534274514223 28.712529936689215 -0.6979462738653616 0.0 0.0 -3.975693351829396e-16 0.0 0.0 -4.969616689786745e-17 -0.05900803986975464 -3.5769285661621586 -3.451565465042188 0.6013035208372607 4.3379238318258335e-16 -2.010636914190639e-16 0.0 0.0 0.0 -40.44960917651741 11.754872522592695 81.56604759192324 -21.372193861544762 -2.580219464441749e-15 1.3673611573232088e-14 0.0 0.0 -1.3914926731402886e-15 0.0 0.0 0.0 -0.42522914558052927 -3.938493107576626 2.8556110730960325 0.0 0.0 0.0 18.104702784573995 13.49822035134196 -70.74860686875006 48.05670347602997 -7.73450591154569e-15 1.389516535881283e-14 0.0 0.0 -3.1805546814635168e-15 0.0 0.0 -4.969616689786745e-17 -0.2233949562792307 -13.27903260587163 -0.2474624058162779 0.3347472113242466 24.803871925470183 -2.3455256100473796 0.0 0.0 -3.975693351829396e-16
